<?xml version="1.0" encoding="UTF-8" standalone="no"?>
<svg
   viewBox="0 0 21 16"
   version="1.1"
   id="svg1"
   sodipodi:docname="playstation.svg"
   inkscape:export-filename="playstation.png"
   inkscape:export-xdpi="96"
   inkscape:export-ydpi="96"
   inkscape:version="1.3 (0e150ed6c4, 2023-07-21)"
   xmlns:inkscape="http://www.inkscape.org/namespaces/inkscape"
   xmlns:sodipodi="http://sodipodi.sourceforge.net/DTD/sodipodi-0.dtd"
   xmlns="http://www.w3.org/2000/svg"
   xmlns:svg="http://www.w3.org/2000/svg">
  <defs
     id="defs1" />
  <sodipodi:namedview
     id="namedview1"
     pagecolor="#ffffff"
     bordercolor="#000000"
     borderopacity="0.25"
     inkscape:showpageshadow="2"
     inkscape:pageopacity="0.0"
     inkscape:pagecheckerboard="0"
     inkscape:deskcolor="#d1d1d1"
     inkscape:zoom="48.5625"
     inkscape:cx="10.491634"
     inkscape:cy="8"
     inkscape:window-width="1920"
     inkscape:window-height="991"
     inkscape:window-x="2391"
     inkscape:window-y="-9"
     inkscape:window-maximized="1"
     inkscape:current-layer="svg1" />
  <path
     d="M11.112 16L8 14.654V0s6.764 1.147 7.695 3.987c.931 2.842-.52 4.682-1.03 4.736-1.42.15-1.96-.748-1.96-.748V3.39l-1.544-.648L11.112 16zM12 14.32V16s7.666-2.338 8.794-3.24c1.128-.9-2.641-3.142-4.666-2.704 0 0-2.152.099-4.102.901-.019.008 0 1.51 0 1.51l4.948-1.095 1.743.73L12 14.32zm-5.024-.773s-.942.476-3.041.452c-2.1-.024-3.959-.595-3.935-1.833C.024 10.928 3.476 9.571 6.952 9v1.738l-3.693.952s-.632.786.217.81A11.934 11.934 0 007 12.046l-.024 1.5z"
     fill="#FFF"
     id="path1" />
</svg>
